# xmcd
# 
# Track frame offsets:
#     150
#     12002
#     22146
#     34666
#     45172
#     55448
#     66945
#     79190
#     91784
#     103806
#     115017
#     125487
#     136426
#     149419
#     161827
#     173790
#     186215
#     198858
#     209177
#     222731
#     233068
#     245693
#     255627
#     268296
#     277763
# 
# Disc length: 3861
# 
# Revision: 2
# Processed by: cddbd v1.5.2PL0 Copyright (c) Steve Scherf et al.
# Submitted via: fre:ac v1.0.17
# 
DISCID=780f1319
DTITLE=Various Artist - Collected Country Songs
DYEAR=0
DGENRE=Country
TTITLE0=Tennessee Ernie Ford - Sixteen Tons
TTITLE1=Hank Thompson - Rub-A-Dub-Dub
TTITLE2=Jim Reeves - Bimbo
TTITLE3=Bonnie Lou - Seven Lonely Days
TTITLE4=Hank Thompson - Wake Up, Irene
TTITLE5=Skeets McDonald - Be My Life's Companion
TTITLE6=Hank Williams - Your Cheatin' Heart
TTITLE7=Faron Young - In The Chapel, In The Moonlight - Faron Young
TTITLE8=Jim Reeves - Mexican Joe
TTITLE9=Hank Snow - (Now And Then There's) A Fool Such As I
TTITLE10=Carl Smith - Trademark
TTITLE11=Johnny Cash - Cry, Cry, Cry
TTITLE12=Eddy Arnold - Anytime
TTITLE13=Marty Robbins - I Couldn't Keep From Crying
TTITLE14=Frankie Lane - High Noon (Do Not Forsake Me)
TTITLE15=Faron Young - Just Out Of Reach
TTITLE16=Johnny Cash - Folsom Prison Blues - Johnny Cash
TTITLE17=Lefty Frizzel - Give me More, More, More (Of Your Kisses)
TTITLE18=Doris Day - The Blackhills Of Dakota - Doris Day
TTITLE19=Ernest Tubb - Two Glasses Joe
TTITLE20=Red Foley - Chattanoogie Shoeshine Boy
TTITLE21=Johnny Cash - Hey Porter
TTITLE22=Hank Snow - I'm Movin' On
TTITLE23=Tennessee Ernie Ford And Helen O'Connell - Hey Good Lookin'
TTITLE24=Hank Williams - Take These Chains From My Heart
EXTD=This is one from a series of colected genre-albums from DISKY Communnications Europe BV
EXTT0=
EXTT1=
EXTT2=
EXTT3=
EXTT4=
EXTT5=
EXTT6=
EXTT7=
EXTT8=
EXTT9=
EXTT10=
EXTT11=
EXTT12=
EXTT13=
EXTT14=
EXTT15=
EXTT16=
EXTT17=
EXTT18=
EXTT19=
EXTT20=
EXTT21=
EXTT22=
EXTT23=
EXTT24=
PLAYORDER=
